<svg width="657" height="750" viewBox="0 0 657 750" fill="none" xmlns="http://www.w3.org/2000/svg">
<circle cx="362.5" cy="355.5" r="294.5" fill="#008080"/>
<path d="M144.623 314.383C126.361 314.383 111.501 312.413 100.043 308.475C88.9427 304.536 81.4232 299.523 77.4844 293.436C75.694 290.929 74.0827 287.169 72.6504 282.156C71.2181 277.143 71.7552 271.593 74.2617 265.506C79.2747 269.445 84.6458 272.488 90.375 274.637C96.4622 276.427 102.012 277.68 107.025 278.396C113.113 279.471 119.021 280.008 124.75 280.008C135.492 280.008 145.876 279.113 155.902 277.322C166.286 275.532 176.492 273.025 186.518 269.803C190.814 248.318 194.932 228.982 198.871 211.795C203.168 194.607 208.002 180.643 213.373 169.9C219.102 158.084 225.01 147.521 231.098 138.211C237.543 128.543 244.525 120.486 252.045 114.041C259.923 107.238 268.516 102.046 277.826 98.4648C287.136 94.8841 297.878 93.0938 310.053 93.0938C319.005 93.0938 325.987 94.8841 331 98.4648C336.371 102.046 340.31 106.521 342.816 111.893C345.681 117.264 347.292 123.172 347.65 129.617C348.367 135.704 348.725 141.434 348.725 146.805C348.725 158.621 345.86 171.512 340.131 185.477C334.402 199.441 326.345 213.227 315.961 226.834C305.577 240.441 293.044 253.331 278.363 265.506C264.04 277.68 247.927 287.706 230.023 295.584C223.936 319.217 217.849 342.671 211.762 365.945C206.033 388.862 200.303 407.84 194.574 422.879C189.561 436.844 183.116 452.42 175.238 469.607C167.719 486.795 158.409 503.266 147.309 519.021C154.112 523.318 160.915 527.794 167.719 532.449C174.88 537.104 182.042 541.222 189.203 544.803C196.365 548.742 203.526 551.964 210.688 554.471C218.207 556.977 226.085 558.23 234.32 558.23C242.914 557.872 251.329 556.619 259.564 554.471C266.726 552.68 274.245 549.637 282.123 545.34C290.001 541.401 297.341 535.672 304.145 528.152C306.651 532.449 307.367 538.895 306.293 547.488C305.577 556.082 302.891 564.676 298.236 573.27C293.581 581.863 286.957 589.383 278.363 595.828C269.77 602.273 259.027 605.496 246.137 605.496C232.53 605.496 219.818 603.527 208.002 599.588C196.186 596.007 185.085 591.531 174.701 586.16C164.317 580.789 154.47 574.881 145.16 568.436C136.208 562.348 127.794 556.619 119.916 551.248C109.174 561.632 97.3574 570.047 84.4668 576.492C71.5762 582.938 57.2533 586.16 41.498 586.16C28.9655 586.16 18.9395 582.579 11.4199 575.418C3.90039 568.615 0.498698 559.305 1.21484 547.488C1.57292 543.191 2.82617 537.999 4.97461 531.912C7.12305 526.183 11.2409 520.633 17.3281 515.262C23.0573 509.891 31.1139 505.236 41.498 501.297C51.8822 497.716 65.3099 495.926 81.7812 495.926C87.8685 495.926 93.5977 496.463 98.9688 497.537C104.698 498.969 110.248 500.581 115.619 502.371C119.558 495.21 123.497 486.974 127.436 477.664C131.374 468.354 135.671 457.791 140.326 445.975C148.562 423.416 155.723 400.857 161.811 378.299C167.898 355.382 173.09 333.182 177.387 311.697C172.374 312.771 167.003 313.488 161.273 313.846C155.902 314.204 150.352 314.383 144.623 314.383ZM55.4629 557.156C60.1178 555.366 65.4889 553.576 71.5762 551.785C77.6634 549.995 84.6458 544.982 92.5234 536.746C87.1523 534.956 83.0345 534.061 80.1699 534.061C67.2793 534.061 57.9694 535.851 52.2402 539.432C46.153 543.37 43.1094 547.13 43.1094 550.711C43.1094 553.217 44.1836 555.008 46.332 556.082C48.4805 557.514 51.5241 557.872 55.4629 557.156ZM258.49 183.328C256.7 188.699 254.372 196.577 251.508 206.961C248.643 217.345 245.6 229.34 242.377 242.947C261.713 230.415 277.11 216.092 288.568 199.979C300.385 183.865 306.293 167.752 306.293 151.639C306.293 141.971 303.428 137.137 297.699 137.137C292.686 137.137 286.241 141.076 278.363 148.953C270.486 156.473 263.861 167.931 258.49 183.328ZM449.701 601.736C432.156 601.736 416.4 597.081 402.436 587.771C388.471 578.82 376.654 566.466 366.986 550.711C357.318 534.956 350.157 516.694 345.502 495.926C341.205 475.158 339.594 453.136 340.668 429.861C342.1 405.154 345.86 379.731 351.947 353.592C358.035 327.094 366.27 301.313 376.654 276.248C387.038 251.183 399.034 227.371 412.641 204.812C426.605 182.254 441.824 162.56 458.295 145.73C475.124 128.901 493.028 115.652 512.006 105.984C530.984 95.9583 550.857 90.9453 571.625 90.9453C585.232 90.9453 596.69 94.347 606 101.15C615.31 107.954 622.471 116.906 627.484 128.006C632.855 138.748 636.257 150.923 637.689 164.529C639.122 178.136 638.943 191.743 637.152 205.35C635.72 218.598 632.676 231.489 628.021 244.021C623.725 256.196 618.354 266.222 611.908 274.1C603.673 284.484 596.153 290.034 589.35 290.75C582.904 291.108 576.638 289.139 570.551 284.842C568.044 282.693 565.538 280.187 563.031 277.322C560.525 274.816 557.839 271.772 554.975 268.191C552.11 264.253 549.066 259.419 545.844 253.689C552.647 251.183 558.913 247.065 564.643 241.336C570.372 235.249 575.206 228.445 579.145 220.926C583.441 213.406 586.664 205.529 588.812 197.293C591.319 188.699 592.751 180.285 593.109 172.049C593.467 165.604 593.288 159.337 592.572 153.25C591.856 146.805 590.424 141.255 588.275 136.6C586.127 131.587 583.083 127.648 579.145 124.783C575.564 121.561 570.909 119.949 565.18 119.949C550.857 119.949 536.892 125.499 523.285 136.6C509.678 147.342 496.788 161.844 484.613 180.105C472.797 198.009 461.697 218.598 451.312 241.873C441.286 265.148 432.514 289.139 424.994 313.846C417.475 338.553 411.387 362.902 406.732 386.893C402.077 410.883 399.213 432.726 398.139 452.42C396.706 477.127 397.602 497.179 400.824 512.576C404.047 527.973 408.344 539.969 413.715 548.562C419.444 557.514 425.531 563.423 431.977 566.287C438.422 569.51 444.33 571.121 449.701 571.121C459.727 571.121 471.007 566.466 483.539 557.156C496.072 547.846 508.067 535.135 519.525 519.021C530.984 503.266 541.189 485.005 550.141 464.236C559.451 443.468 566.075 421.626 570.014 398.709C561.062 398.709 551.931 398.888 542.621 399.246C533.669 399.246 525.076 399.425 516.84 399.783C508.604 400.141 501.264 400.678 494.818 401.395C488.373 401.753 483.36 402.29 479.779 403.006C477.273 401.932 475.482 400.678 474.408 399.246C473.692 397.814 472.976 396.202 472.26 394.412C471.544 392.98 471.186 391.189 471.186 389.041C471.186 386.893 471.544 384.923 472.26 383.133C472.976 381.342 473.871 379.552 474.945 377.762C476.02 375.613 477.452 373.465 479.242 371.316C490.701 369.168 501.98 367.378 513.08 365.945C524.18 364.513 535.639 363.439 547.455 362.723C559.63 361.648 572.52 360.932 586.127 360.574C600.092 359.858 615.668 359.321 632.855 358.963C640.017 358.605 644.314 359.5 645.746 361.648C647.536 363.797 646.999 369.168 644.135 377.762C641.986 384.565 639.122 390.115 635.541 394.412C632.318 398.709 626.768 400.499 618.891 399.783C616.384 399.783 614.415 399.604 612.982 399.246C609.76 420.372 602.956 442.752 592.572 466.385C582.188 490.018 569.477 511.86 554.438 531.912C539.398 551.964 522.748 568.615 504.486 581.863C486.583 595.112 468.321 601.736 449.701 601.736Z" fill="white"/>
</svg>
